<?xml version="1.0" standalone="no"?>
<!DOCTYPE svg PUBLIC "-//W3C//DTD SVG 20010904//EN"
 "http://www.w3.org/TR/2001/REC-SVG-20010904/DTD/svg10.dtd">
<svg version="1.0" xmlns="http://www.w3.org/2000/svg"
 width="2048.000000pt" height="2048.000000pt" viewBox="0 0 2048.000000 2048.000000"
 preserveAspectRatio="xMidYMid meet">

<g transform="translate(0.000000,2048.000000) scale(0.100000,-0.100000)"
fill="#000000" stroke="none">
<path d="M12875 17073 c-144 -5 -447 -33 -585 -54 -889 -134 -1562 -468 -2165
-1073 -389 -390 -610 -776 -709 -1237 -82 -379 -131 -830 -168 -1554 -19 -360
-19 -5849 0 -6205 40 -776 91 -1122 217 -1490 226 -657 608 -1173 1153 -1557
502 -353 1025 -555 1617 -625 164 -19 590 -16 745 5 439 61 805 206 1120 445
211 161 447 430 605 690 21 34 41 59 45 55 4 -4 77 -216 161 -470 l154 -463
1087 0 1088 0 -2 3558 -3 3557 -2017 3 -2018 2 0 -1010 0 -1010 350 0 350 0 0
-792 c-1 -1134 -16 -1496 -76 -1797 -41 -207 -99 -328 -198 -418 -95 -86 -216
-125 -384 -124 -165 1 -275 43 -362 138 -111 122 -162 325 -190 758 -14 216
-14 7316 0 7545 22 357 61 576 122 678 89 148 226 208 448 199 136 -6 196 -22
278 -78 214 -142 252 -449 252 -2066 l0 -763 1725 0 1725 0 0 363 c-1 1308
-99 2137 -326 2745 -196 525 -635 1018 -1254 1409 -725 458 -1680 676 -2785
636z"/>
<path d="M4537 11733 c-2 -3920 -6 -5094 -15 -5183 -17 -152 -34 -218 -84
-320 -33 -69 -58 -102 -128 -171 -71 -70 -102 -93 -180 -131 -177 -86 -321
-106 -640 -89 -118 7 -225 15 -237 18 l-23 5 0 -1162 0 -1162 1163 5 c969 3
1194 7 1357 21 622 52 936 125 1251 287 492 255 852 791 933 1390 50 368 56
1048 56 6587 l0 4972 -1725 0 -1725 0 -3 -5067z"/>
</g>
</svg>
